<svg viewBox="0 0 48 48" xml:space="preserve" xmlns="http://www.w3.org/2000/svg" enable-background="new 0 0 48 48"><g id="Icons"><circle cx="22.841" cy="27.724" r="4.254" fill="none" stroke="#e0ff80" stroke-width=".7" stroke-linecap="round" stroke-linejoin="round" stroke-miterlimit="10" class="stroke-303030"></circle><circle cx="22.841" cy="27.724" r="2.808" fill="none" stroke="#e0ff80" stroke-width=".7" stroke-linecap="round" stroke-linejoin="round" stroke-miterlimit="10" class="stroke-303030"></circle><path d="M34.411 25.662h-7.798M19.107 25.662H11.27M27.67 19.688h6.071c.368 0 .67.303.67.67v14.714c0 .378-.302.68-.68.68H11.94a.673.673 0 0 1-.67-.67V20.348c0-.367.292-.659.66-.659h6.082l1.35-2.396a.64.64 0 0 1 .558-.326h5.841a.64.64 0 0 1 .559.326l1.35 2.396zM34.749 12.247v3.962M32.769 14.228h3.961" fill="none" stroke="#e0ff80" stroke-width=".7" stroke-linecap="round" stroke-linejoin="round" stroke-miterlimit="10" class="stroke-303030"></path></g></svg>